Coordinates
version=1
nRows=15
nColumns=27
inDegrees=yes

Units are S.I. units (second, meters, Newtons, ...)
If the header above contains a line with 'inDegrees', this indicates whether rotational values are in degrees (yes) or radians (no).

endheader
time	pelvis_rotation	pelvis_tilt	pelvis_list	pelvis_tx	pelvis_ty	pelvis_tz	hip_flexion_r	hip_adduction_r	hip_rotation_r	knee_angle_r	knee_rotation_r	knee_adduction_r	knee_angle_r_beta	ankle_angle_r	subtalar_angle_r	mtp_angle_r	hip_flexion_l	hip_adduction_l	hip_rotation_l	knee_angle_l	knee_rotation_l	knee_adduction_l	knee_angle_l_beta	ankle_angle_l	subtalar_angle_l	mtp_angle_l
      3.06500000	      0.57838210	    -19.04449984	      0.22568699	      0.06352346	      0.82473880	     -1.13254561	     31.29364022	    -27.50161709	    -32.77189102	     19.33279665	     -1.08911244	     -2.00962615	      0.33742096	     -4.08835198	     18.45401030	      0.00000000	     32.24426069	    -25.54156501	    -21.82223429	     17.46346595	     -1.28972146	      7.42780063	      0.30479498	     -6.12548706	     21.20706518	      0.00000000
      3.07000000	      1.72280040	    -19.31299878	     -0.39161033	      0.06331005	      0.82470743	     -1.13177369	     30.64709897	    -27.16928294	    -34.93682239	     19.16240290	     -1.13529884	     -1.50568111	      0.33444702	     -4.20188701	     18.41266926	      0.00000000	     33.57070036	    -25.89877268	    -19.59351643	     17.84938076	     -1.24722059	      8.14028767	      0.31153046	     -6.22893132	     21.51127146	      0.00000000
      3.07500000	      0.91578219	    -19.87627297	     -0.60478677	      0.06160402	      0.82425288	     -1.13137499	     32.16243653	    -26.77285465	    -33.63395981	     19.70328844	     -1.41526094	     -1.64386080	      0.34388726	     -4.14873488	     18.21747270	      0.00000000	     34.13331983	    -26.52837556	    -20.32153674	     18.35388673	     -1.08050837	      8.03188522	      0.32033575	     -6.02473530	     21.61924370	      0.00000000
      3.08000000	      0.67422305	    -20.39776451	      0.32274945	      0.05970997	      0.82356932	     -1.13228348	     33.81290278	    -27.90197753	    -32.20817255	     20.81857340	     -1.29331598	     -1.69264075	      0.36335265	     -3.74837650	     17.98578416	      0.00000000	     34.52591100	    -25.66539388	    -21.17787628	     18.50739767	     -1.21353233	      7.35130788	      0.32301503	     -5.93049244	     20.85097854	      0.00000000
      3.08500000	      1.61464953	    -20.87747660	     -0.28540459	      0.05893789	      0.82333029	     -1.13154415	     33.65186800	    -27.61834378	    -33.97352376	     20.87988003	     -1.36236529	     -1.24962892	      0.36442265	     -3.80667906	     17.85841090	      0.00000000	     36.11584310	    -26.07922450	    -19.10919290	     19.08207246	     -1.16916814	      8.05870458	      0.33304499	     -5.97210143	     21.25973496	      0.00000000
      3.09000000	      1.32438956	    -21.33723694	      0.45182142	      0.05719764	      0.82259394	     -1.13211112	     35.25853906	    -28.49892452	    -32.76804918	     21.97008894	     -1.43689408	     -1.25416157	      0.38345039	     -3.48709641	     17.91129567	      0.00000000	     36.44026067	    -25.48779568	    -19.75751303	     19.23216768	     -1.24923901	      7.93483163	      0.33566465	     -5.98047161	     21.00914784	      0.00000000
      3.09500000	      0.87171548	    -22.12442632	      0.42664280	      0.05493955	      0.82182018	     -1.13193066	     36.92376118	    -28.46197356	    -31.44069820	     22.70024334	     -1.37258005	     -1.38061273	      0.39619399	     -3.33382093	     17.26553040	      0.00000000	     37.55868760	    -25.84491415	    -20.16276499	     19.96853026	     -1.10285837	      7.27540840	      0.34851660	     -5.63387804	     20.44125205	      0.00000000
      3.10000000	      1.42540239	    -22.64523079	      0.56400312	      0.05359819	      0.82114212	     -1.13182875	     37.68605289	    -28.95304895	    -32.09404855	     23.43529568	     -1.52630217	     -1.07137749	      0.40902307	     -3.14539928	     17.48309750	      0.00000000	     38.70856234	    -25.61545688	    -19.06379558	     20.36677764	     -1.13670603	      7.88544466	      0.35546733	     -5.75261887	     20.68027630	      0.00000000
      3.10500000	      0.53314452	    -23.36826083	      1.79806731	      0.05084645	      0.81993510	     -1.13264396	     40.58129295	    -30.05899547	    -29.17481486	     25.03730322	     -1.59168007	     -1.41881974	      0.43698338	     -2.71705957	     17.54133020	      0.00000000	     38.86965075	    -24.84598416	    -20.72450501	     20.54653278	     -1.20313361	      7.74142820	      0.35860465	     -5.79828866	     20.40023419	      0.00000000
      3.11000000	      1.18852309	    -24.00380925	      1.13680271	      0.04945210	      0.81925013	     -1.13184242	     40.84087660	    -29.78607289	    -30.36839609	     25.32463002	     -1.56591853	     -1.03601305	      0.44199818	     -2.70375430	     17.08349141	      0.00000000	     40.70650279	    -25.45745177	    -19.07655248	     21.45809102	     -1.04265894	      7.76864775	      0.37451434	     -5.55720742	     20.29171792	      0.00000000
      3.11500000	      0.69878527	    -24.76816041	      1.90481890	      0.04695358	      0.81801058	     -1.13224853	     43.15071403	    -30.52637531	    -28.19421538	     26.58964903	     -1.39130108	     -1.23050775	      0.46407692	     -2.35092257	     16.67566924	      0.00000000	     41.41255084	    -25.09668529	    -20.10027763	     21.94804084	     -0.98282585	      7.05727605	      0.38306558	     -5.34579003	     19.51634773	      0.00000000
      3.12000000	      0.61245438	    -25.57169291	      1.66507267	      0.04465112	      0.81692604	     -1.13165202	     44.60545647	    -30.37168431	    -27.76645591	     27.35522575	     -1.51873074	     -1.24190753	      0.47743876	     -2.29703578	     16.49343999	      0.00000000	     42.87776572	    -25.58763837	    -19.41040400	     22.77017821	     -0.86085764	      7.65621870	      0.39741458	     -5.27662107	     19.98482272	      0.00000000
      3.12500000	      0.83317152	    -26.14039860	      2.19322706	      0.04284898	      0.81572894	     -1.13180535	     46.02017240	    -31.14326804	    -27.17544789	     28.39864128	     -1.43628535	     -1.06948127	      0.49564979	     -1.99430670	     16.39263974	      0.00000000	     43.83454226	    -25.20864169	    -19.27016704	     23.27687793	     -0.83979527	      7.53786769	      0.40625816	     -5.21598005	     19.66594415	      0.00000000
      3.13000000	      0.19511626	    -26.98231233	      2.50666472	      0.04030271	      0.81428058	     -1.13163425	     48.31446302	    -31.28175500	    -25.17163403	     29.51689619	     -1.30352578	     -1.20103339	      0.51516702	     -1.78501739	     15.80661984	      0.00000000	     44.77771806	    -25.47009454	    -20.12814848	     24.00715314	     -0.62441011	      6.83785463	      0.41900387	     -4.90364548	     18.98136078	      0.00000000
      3.13500000	      0.36771920	    -27.58018542	      3.13384372	      0.03818621	      0.81287348	     -1.13176537	     49.95961146	    -32.05690188	    -24.20153750	     30.62088191	     -1.21175302	     -1.29760202	      0.53443521	     -1.54071153	     15.95803231	      0.00000000	     45.73921161	    -25.05547127	    -19.94326161	     24.54448662	     -0.67782047	      7.29256778	      0.42838210	     -4.97853513	     19.28632097	      0.00000000
